HIERARCHY
ROOT root
{
	OFFSET 0.000000 0.000000 0.000000
	CHANNELS 6 Xposition Yposition Zposition Zrotation Yrotation Xrotation
	JOINT lhip
	{
		OFFSET 0.058581 -0.082280 -0.017664
		CHANNELS 3 Zrotation Yrotation Xrotation
		JOINT lknee
		{
			OFFSET 0.043451 -0.386469 0.008037
			CHANNELS 3 Zrotation Yrotation Xrotation
			JOINT lankle
			{
				OFFSET -0.014790 -0.426874 -0.037428
				CHANNELS 3 Zrotation Yrotation Xrotation
				JOINT ltoe
				{
					OFFSET 0.041054 -0.060286 0.122042
					CHANNELS 3 Zrotation Yrotation Xrotation
					End Site
					{
						OFFSET 0.000000 0.000000 0.000000
					}
				}
			}
		}
	}
	JOINT rhip
	{
		OFFSET -0.060310 -0.090513 -0.013543
		CHANNELS 3 Zrotation Yrotation Xrotation
		JOINT rknee
		{
			OFFSET -0.043257 -0.383688 -0.004843
			CHANNELS 3 Zrotation Yrotation Xrotation
			JOINT rankle
			{
				OFFSET 0.019056 -0.420046 -0.034562
				CHANNELS 3 Zrotation Yrotation Xrotation
				JOINT rtoe
				{
					OFFSET -0.034840 -0.062106 0.130323
					CHANNELS 3 Zrotation Yrotation Xrotation
					End Site
					{
						OFFSET 0.000000 0.000000 0.000000
					}
				}
			}
		}
	}
	JOINT lowerback
	{
		OFFSET 0.004439 0.124404 -0.038385
		CHANNELS 3 Zrotation Yrotation Xrotation
		JOINT upperback
		{
			OFFSET 0.004488 0.137956 0.026820
			CHANNELS 3 Zrotation Yrotation Xrotation
			JOINT chest
			{
				OFFSET -0.002265 0.056032 0.002855
				CHANNELS 3 Zrotation Yrotation Xrotation
				JOINT lowerneck
				{
					OFFSET -0.013390 0.211636 -0.033468
					CHANNELS 3 Zrotation Yrotation Xrotation
					JOINT upperneck
					{
						OFFSET 0.010113 0.088937 0.050410
						CHANNELS 3 Zrotation Yrotation Xrotation
						End Site
						{
							OFFSET 0.000000 0.000000 0.000000
						}
					}
				}
				JOINT lclavicle
				{
					OFFSET 0.071702 0.114000 -0.018898
					CHANNELS 3 Zrotation Yrotation Xrotation
					JOINT lshoulder
					{
						OFFSET 0.122921 0.045205 -0.019046
						CHANNELS 3 Zrotation Yrotation Xrotation
						JOINT lelbow
						{
							OFFSET 0.255332 -0.015649 -0.022946
							CHANNELS 3 Zrotation Yrotation Xrotation
							JOINT lwrist
							{
								OFFSET 0.265709 0.012698 -0.007375
								CHANNELS 3 Zrotation Yrotation Xrotation
								End Site
								{
									OFFSET 0.000000 0.000000 0.000000
								}
							}
						}
					}
				}
				JOINT rclavicle
				{
					OFFSET -0.082954 0.112472 -0.023707
					CHANNELS 3 Zrotation Yrotation Xrotation
					JOINT rshoulder
					{
						OFFSET -0.113228 0.046853 -0.008472
						CHANNELS 3 Zrotation Yrotation Xrotation
						JOINT relbow
						{
							OFFSET -0.260127 -0.014369 -0.031269
							CHANNELS 3 Zrotation Yrotation Xrotation
							JOINT rwrist
							{
								OFFSET -0.269108 0.006794 -0.006027
								CHANNELS 3 Zrotation Yrotation Xrotation
								End Site
								{
									OFFSET 0.000000 0.000000 0.000000
								}
							}
						}
					}
				}
			}
		}
	}
}
MOTION
Frames: 16
Frame Time: 0.033333
-1.707874 0.242815 0.994300 91.211454 1.582951 86.128432 5.492553 3.729078 4.473155 -2.384843 -5.718088 8.387310 1.260518 11.698346 -17.971744 0.000000 -0.000000 0.000000 0.194139 -0.289932 -2.478758 0.293017 -0.004055 19.864457 2.680556 -6.879425 -18.500848 0.000000 -0.000000 0.000000 -0.819120 -0.272769 6.732843 3.968406 -1.108225 -3.155733 0.778560 -2.003408 1.159878 6.711126 -12.017020 0.846770 -0.693335 -18.757264 13.235160 -26.932636 2.361858 3.837417 -60.083199 -8.223043 12.820432 6.198826 -30.788638 18.170125 0.691082 1.205442 5.450759 26.806176 0.751824 -0.625133 56.941381 3.074927 16.112311 -8.969748 26.093647 11.858359 -8.506293 -1.427246 3.366962 
-1.707435 0.243973 0.991653 91.227360 0.886866 87.252790 4.585299 3.191619 3.157730 -2.421403 -5.357836 8.610948 4.573240 12.420202 -17.963418 0.000000 -0.000000 0.000000 -0.842985 0.179599 -3.980723 0.648767 -0.230801 20.423399 2.815417 -7.251587 -18.661410 0.000000 -0.000000 0.000000 -1.357770 -0.339261 5.372577 3.588752 -1.145593 -3.295734 0.620860 -1.850207 1.273642 6.790357 -12.121158 1.310490 -0.955868 -18.460269 13.311765 -26.342857 3.070950 4.029079 -60.236472 -8.328432 13.242642 6.009922 -30.894288 18.992071 0.322007 1.559379 4.046288 26.680399 0.271501 -0.201949 57.639637 2.894859 16.667315 -9.360687 25.615730 12.011969 -8.138831 -1.863070 2.661802 
-1.706182 0.246753 0.989470 91.774700 0.559737 87.536332 4.021540 2.670752 2.505928 -2.317866 -5.365438 9.219801 4.586989 12.569243 -17.979018 0.000000 -0.000000 0.000000 -1.589107 -0.162810 -4.306049 0.934506 -0.464760 20.703501 3.027888 -7.330552 -18.725341 0.000000 -0.000000 0.000000 -1.123406 -0.366566 4.872877 3.276035 -1.698964 -2.983926 0.224465 -1.816132 1.288107 6.761502 -11.944774 1.425131 -0.840224 -18.222513 13.014619 -26.261525 3.304398 4.011367 -60.116438 -8.241926 13.291085 5.972330 -30.821882 19.136740 0.397870 1.512051 3.680815 26.631640 0.196831 -0.025384 57.958780 2.730521 16.699249 -9.419639 25.016108 12.104899 -8.316834 -1.876781 2.854980 
-1.706626 0.248644 0.987762 91.964658 0.508541 87.232327 3.899943 2.404005 1.735528 -2.571000 -5.224802 11.338547 4.668696 12.813259 -18.976220 0.000000 -0.000000 0.000000 -1.778997 -0.118837 -4.670760 1.017855 -0.685265 22.046802 3.143130 -7.540308 -19.299212 0.000000 -0.000000 0.000000 -0.666503 -0.889496 5.638037 3.126587 -2.175542 -3.072581 -0.390996 -1.259755 1.224721 6.653736 -11.250976 1.250612 -1.132473 -17.957442 13.429219 -26.163712 3.750713 3.348848 -59.641867 -7.722026 13.069631 5.563852 -30.700681 19.419642 0.210581 1.420390 3.532467 26.863179 0.397411 -0.048779 58.261633 2.651726 16.722525 -9.517216 24.096117 11.852412 -8.247351 -1.952412 3.238771 
-1.707299 0.249970 0.985863 92.056597 0.522682 86.976075 3.908910 2.210566 0.762953 -2.903519 -4.892702 13.780341 4.900443 12.985692 -20.117193 0.000000 -0.000000 0.000000 -1.850346 0.044208 -5.213548 1.164209 -0.785824 23.608818 3.055474 -7.855152 -20.122638 0.000000 -0.000000 0.000000 -0.366461 -1.215646 6.290041 3.087434 -2.446527 -3.276191 -0.693588 -1.051568 1.166260 6.448472 -10.683304 1.305124 -1.417868 -17.036078 13.484621 -26.247708 3.964029 3.102720 -59.150186 -7.187113 12.706896 5.329368 -30.915645 19.713235 0.026430 1.373016 3.361638 26.904568 0.675138 0.308154 58.375190 2.729607 16.585554 -9.620067 23.819266 11.620001 -8.119071 -1.825149 3.352840 
-1.709518 0.251602 0.980554 92.092122 0.676983 86.404901 4.296923 1.617958 -1.093580 -3.795271 -3.890078 18.456408 5.065554 13.254811 -22.141782 0.000000 -0.000000 0.000000 -1.830343 0.547046 -6.374774 1.436298 -1.126008 26.854867 2.844462 -8.383808 -21.851279 0.000000 -0.000000 0.000000 -0.485018 -0.749654 7.298078 3.284597 -1.914796 -2.933986 -0.618688 -1.352569 1.646373 6.691068 -10.199373 0.355874 -1.816806 -17.539030 13.719983 -25.967364 3.363087 3.094790 -59.405638 -7.761583 13.015420 5.682776 -30.801807 19.486722 -0.225047 1.291093 2.920167 26.852189 0.429454 -0.719089 58.087518 2.411513 16.782663 -9.609677 24.490920 11.479758 -7.750638 -1.777190 2.743069 
-1.712199 0.253655 0.972447 92.200355 0.823846 85.387373 4.946990 1.056433 -3.033112 -5.166903 -2.869927 24.156012 5.116368 13.568104 -24.577932 0.000000 -0.000000 0.000000 -1.923067 0.869503 -7.567228 1.724310 -1.675063 31.126236 2.568223 -8.742073 -23.969451 0.000000 -0.000000 0.000000 -0.386058 -0.605610 9.293356 3.414858 -1.705181 -2.898860 -0.710991 -1.410845 2.047078 6.851348 -9.255090 -0.797012 -2.201191 -17.586970 13.957548 -25.701283 2.788375 2.851472 -59.280253 -7.863643 13.016110 5.670918 -31.397760 19.542450 -0.242291 0.900693 2.322902 26.884495 0.582611 -1.328204 57.795252 2.360013 16.716501 -9.701188 25.525970 11.194940 -7.628193 -1.433248 2.274268 
-1.714738 0.255904 0.960946 92.264557 0.980546 83.896561 5.696076 1.058605 -4.353315 -6.422119 -2.071175 29.731200 5.171504 13.488647 -27.266044 0.000000 -0.000000 0.000000 -2.042956 1.007294 -8.529952 1.921732 -2.258142 35.997729 2.276192 -8.988413 -26.500491 0.000000 -0.000000 0.000000 -0.371417 -0.302113 11.793159 3.526500 -1.261733 -2.538756 -0.618477 -1.600188 2.530325 7.067616 -8.302058 -2.181890 -2.470484 -17.704247 13.823406 -25.404179 1.872990 2.581043 -59.211757 -8.200847 12.983654 5.665569 -32.259570 19.342209 -0.013618 0.703283 1.590073 26.870245 0.832119 -2.074784 57.324604 2.377062 16.586870 -9.831866 27.074869 10.833213 -7.623347 -1.117192 2.056879 
-1.717071 0.258103 0.946536 92.323213 0.944354 82.377502 6.198349 1.860881 -5.223449 -7.370294 -1.684339 34.648731 5.649053 13.193258 -30.208927 0.000000 -0.000000 0.000000 -2.416503 0.741536 -9.606904 1.997479 -2.760669 41.148353 1.783013 -9.068013 -29.218315 0.000000 -0.000000 0.000000 -0.167693 -0.995965 14.389937 3.420711 -1.707638 -2.193148 -1.048642 -1.057801 2.554911 7.038464 -6.601396 -2.931801 -2.866491 -16.475657 13.648126 -25.381465 1.655830 1.975811 -58.008204 -7.441399 12.120725 5.014669 -34.069141 19.691869 0.571053 0.415865 1.256199 27.274583 1.965312 -1.613819 56.877469 3.104636 16.119349 -10.089579 28.077581 10.096154 -7.912118 -0.633558 2.548395 
-1.719127 0.260169 0.925966 92.442646 0.809286 80.888719 6.756486 2.885880 -6.391523 -8.247138 -0.956475 40.132949 6.425533 12.919270 -33.586701 0.000000 -0.000000 0.000000 -3.013367 0.364551 -11.285499 2.043565 -3.304994 47.443703 1.285048 -9.346044 -32.341900 0.000000 -0.000000 0.000000 -0.506784 -1.249883 16.842839 3.483096 -1.793677 -1.535094 -1.197750 -0.832850 2.891471 7.199332 -4.922018 -3.914768 -3.595989 -15.930462 13.896630 -25.397672 1.452790 1.308117 -56.927787 -7.267433 11.515222 4.584594 -35.474521 19.739268 1.468368 0.156250 1.047634 28.062993 2.657913 -1.766137 55.712525 4.010454 15.970088 -10.182046 29.162237 9.360495 -8.283912 -0.165082 3.213790 
-1.719955 0.261352 0.909790 92.602239 0.739936 79.839124 7.295294 3.188455 -7.680713 -8.933099 -0.031447 44.807514 6.525699 12.789848 -35.815234 0.000000 -0.000000 0.000000 -3.389097 0.214827 -12.395366 1.991193 -3.723522 51.932881 0.880344 -9.650410 -34.460469 0.000000 -0.000000 0.000000 -0.755501 -1.312512 18.378891 3.605778 -1.986865 -0.806600 -1.323375 -0.671936 2.983976 7.202916 -3.715926 -4.407537 -4.174619 -15.628439 14.160085 -25.256836 1.254976 0.857651 -56.517155 -7.202370 11.077810 4.704732 -35.674596 19.535575 1.983614 0.164067 0.665910 28.629720 2.955336 -1.842603 55.048306 4.866489 15.734740 -10.416742 29.431237 8.994270 -8.373051 0.029710 3.432929 
-1.720011 0.262835 0.895247 92.789138 0.784182 78.851669 7.772152 3.500538 -8.710516 -9.405117 0.640672 48.996011 6.748400 12.804930 -37.845801 0.000000 -0.000000 0.000000 -3.604009 -0.013418 -13.133529 1.926234 -3.966804 55.725754 0.510056 -10.010753 -36.323643 0.000000 -0.000000 0.000000 -0.616966 -1.316164 19.799416 3.664397 -1.968138 -0.432764 -1.360043 -0.871836 2.999630 6.849448 -2.851461 -4.495540 -4.672940 -14.464674 14.257395 -25.532637 1.004362 0.810501 -55.990986 -6.962664 10.167107 4.932018 -35.500726 19.273670 2.081105 0.339609 0.536086 28.717882 3.247843 -1.509783 54.864495 5.456428 15.061452 -10.947985 29.432170 8.247787 -8.350454 0.109448 3.547820 
-1.719974 0.264545 0.882314 92.901041 0.947461 78.212093 8.149668 3.969181 -9.790399 -9.565303 1.005089 52.586765 7.117081 12.946400 -39.518887 0.000000 -0.000000 0.000000 -3.668404 -0.214837 -13.954820 1.931001 -4.099478 58.917929 0.128588 -10.480521 -37.836954 0.000000 -0.000000 0.000000 -0.239120 -1.414425 20.877046 3.660508 -1.799262 -0.262148 -1.450093 -0.977239 3.074264 6.438018 -2.278150 -4.399879 -4.908537 -13.306217 14.048413 -25.936015 0.628595 0.891662 -55.379008 -6.538497 9.362133 5.194943 -35.144813 18.844239 2.185079 0.749823 0.497137 28.755185 3.649166 -1.059850 54.703457 5.594860 14.356460 -11.523130 29.399546 7.100564 -8.450334 0.064933 3.307293 
-1.718974 0.266305 0.871681 92.887816 1.032791 77.669466 8.342956 4.150055 -10.452387 -9.545730 1.429758 55.306504 7.249425 13.152953 -40.806333 0.000000 -0.000000 0.000000 -3.829629 -0.303395 -14.483230 1.953454 -4.203248 61.425588 0.054073 -10.660859 -39.012022 0.000000 -0.000000 0.000000 -0.028587 -1.374049 21.723329 3.621153 -1.620641 -0.096433 -1.633777 -0.642635 3.357706 6.382415 -1.655080 -4.519007 -4.835069 -13.377878 14.017937 -25.769843 0.205834 0.905136 -55.343805 -6.416881 9.205243 5.550698 -34.190088 18.329185 2.425343 1.033512 0.527309 29.076820 3.787504 -1.181975 54.332144 5.297186 13.990971 -11.722434 29.146399 6.401613 -8.541767 -0.144958 2.723443 
-1.717860 0.267764 0.863515 92.781370 1.166768 77.270774 8.510011 4.354389 -10.971071 -9.566603 1.609489 57.458220 7.304422 13.511315 -41.782387 0.000000 -0.000000 0.000000 -3.869329 -0.324526 -14.884659 1.984189 -4.290726 63.327605 -0.083187 -10.830735 -39.844242 0.000000 -0.000000 0.000000 0.225917 -1.350782 22.556450 3.603720 -1.379514 -0.107592 -1.520388 -0.710530 3.387757 6.041101 -0.854331 -4.377390 -4.847698 -11.962605 13.451249 -25.984205 0.080961 0.877296 -55.100091 -5.775079 8.700697 5.620185 -33.452088 18.338804 2.299309 1.323907 0.706489 28.935800 3.993623 -0.880977 54.120653 5.259277 13.557562 -11.534337 28.483307 6.399291 -8.367410 -0.175288 2.665318 
-1.716986 0.268868 0.857654 92.559404 1.269206 77.149779 8.682532 4.421701 -11.433590 -9.534211 1.944081 58.916863 7.357668 13.699253 -42.461513 0.000000 -0.000000 0.000000 -3.879562 -0.275876 -15.330405 2.041074 -4.332127 64.618966 -0.154959 -10.924713 -40.422568 0.000000 -0.000000 0.000000 0.321791 -1.202635 23.042146 3.622208 -1.131863 -0.046572 -1.496276 -0.436028 3.511091 5.905642 -0.475611 -4.573770 -4.759662 -11.895046 13.020691 -25.748774 -0.004135 1.055773 -55.275493 -5.510559 8.507197 5.845188 -32.863724 18.194581 1.791040 1.643098 0.732764 29.098732 3.985187 -0.898350 53.781578 4.929180 13.250608 -11.396799 27.931084 6.639524 -7.985552 -0.201072 2.856658 
